<?xml version="1.0" encoding="UTF-8"?>
<svg id="Layer_1" data-name="Layer 1" xmlns="http://www.w3.org/2000/svg" viewBox="0 0 740.43 740.43">
  <defs>
    <style>
      .cls-1, .cls-2 {
        stroke-width: 0px;
      }

      .cls-1, .cls-3 {
        fill: none;
      }

      .cls-2 {
        fill: #005f7e;
      }

      .cls-3 {
        stroke: #005f7e;
        stroke-miterlimit: 10;
        stroke-width: 3px;
      }
    </style>
  </defs>
  <path class="cls-2" d="M209.99,542.05c-29.06,3-55.37-1.92-78.49-19.51-20.65-15.71-33.33-36.93-40.91-61.28-7.63-24.53-11.33-49.75-8.26-75.38,5.08-42.39,26.9-72.61,67.1-88.56,5.39-2.14,11.09-3.49,16.67-5.14.58-.17,1.28.07,2.22.14,1.19,6.77,2.49,13.43,3.39,20.15.14,1.07-1.22,3.05-2.33,3.48-10.14,3.96-14.52,11.74-13.54,22.02,1.27,13.22,3.29,26.38,5.43,39.5,6.08,37.25,12.29,74.48,18.69,111.68,1.03,6.01,2.74,12.02,5.06,17.65,2.94,7.15,8.64,11.4,16.66,11.41,3.66,0,4.86,1.55,5.28,4.93.76,6.07,1.92,12.1,3.04,18.92Z"/>
  <path class="cls-2" d="M457.33,351.08c-2.42-12.36-4.75-24.22-7.06-36.03-7.6,0-14.96.86-22.05-.16-20.66-2.99-37.56-18.82-42.05-38.36-4.87-21.2,2.82-43.35,20.59-54.94,8.66-5.65,18.8-9.01,28.28-13.39,1.05-.49,2.15-.92,3.26-1.24,12.96-3.73,20.96-10.74,24.42-25.18,9.44-39.39,49.05-50.19,81.23-40.19,21.3,6.61,39.16,18.88,55.41,33.71,18.77,17.13,34.45,36.68,44.24,60.31,10.46,25.25,5.63,49.87-12.75,67.6-10.27,9.91-22.89,14.66-36.99,15.29-3.71.17-4.7,1.5-5.24,4.86-1.27,7.87-3.31,15.62-4.45,23.5-.61,4.18-2.21,4.02-5.65,3.38-12.73-2.39-25.48-4.88-38.33-6.35-26.59-3.04-52.8.04-78.68,6.37-1.11.27-2.24.44-4.18.82ZM591.62,308.27c14.46-1.12,25.89-6.4,34.6-16.91,12.44-15.02,13.14-31.89,6.42-49.35-9.77-25.41-27.35-45.1-47.54-62.61-16.56-14.35-34.74-25.91-57.03-29.07-20.61-2.92-45.48,4.5-54.27,29.86-1.25,3.61-2.68,7.17-3.94,10.78-3.61,10.4-7.14,20.86-15.09,28.96-5.24,5.34-11.13,9.57-20.5,10,7.95-4.4,13.61-9.13,17.25-17.68-12.06,5-23.31,8.75-33.69,14.17-15.88,8.28-23.87,22.19-22.81,40.12,1,16.85,9.92,29.08,25.43,35.92,8.84,3.9,18.12,4.64,27.41,1.56-.18-6.02-1.4-10.66-6.61-14.03-3.2-2.08-5.76-5.58-7.77-8.95-2.13-3.56-3.28-7.71-4.86-11.61l1.28-.48c.35.33.75.62,1.04,1,16.29,21.24,40.76,23.34,60.19,5.05,6.31-5.93,12.26-12.24,18.58-18.16,15.39-14.39,33.5-22.82,54.66-24.38-18.03,7.24-34.26,17.02-47.79,32.81,14,.64,25.2,6.11,36.4,11.65,3.87,1.92,7.88,3.59,11.89,5.2,18.78,7.57,35.82,4.17,51.37-8.31.78-.63,1.51-1.31,2.29-1.93.63-.5,1.31-.95,1.97-1.42-4.3,10.86-12.12,17.86-22.36,22.45-1.62.73-3.56,2.13-4.09,3.66-1.17,3.41-1.54,7.09-2.44,11.69ZM583.27,297.93c-9.05-2.14-17.77-2.67-25.01-6.24-13.27-6.54-26.95-7.7-41.19-7.08-4.16.18-8.39-.21-12.46.44-3.24.52-6.78,1.59-9.35,3.53-9.97,7.53-20.79,11.74-33.44,10.44-1.23-.13-2.49-.02-4.28-.02,2.64,13.63,5.15,26.61,7.73,39.94,36.95-8.21,73.39-8.14,110.12.01,2.74-14.27,5.36-27.9,7.89-41.03Z"/>
  <path class="cls-2" d="M491.92,412.49c19.5,0,38.14.05,56.79-.14,1.02-.01,2.89-2.11,2.9-3.26.09-11.15.12-22.32-.33-33.46-.34-8.28-3.21-10.95-11.32-11.56-2.8-.21-5.72-.06-5.34-3.99.34-3.52,2.97-3.71,5.93-3.67,13.48.15,26.97.16,40.45.1,2.85-.01,5.57-.24,5.81,3.58.23,3.56-2.26,3.72-4.96,3.98-9.08.87-11.91,3.91-11.94,13.17-.09,25.99-.09,51.98,0,77.97.04,9.71,2.52,12.3,12.16,13.41,2.44.28,4.87.39,4.77,3.71-.11,3.35-2.29,3.86-5.16,3.85-13.99-.08-27.99.08-41.97-.18-1.74-.03-4.59-1.81-4.94-3.27-.8-3.24,1.96-3.8,4.71-4.1,9.24-1,11.41-2.9,11.83-12.05.5-10.97.4-21.98.28-32.97-.01-1.17-1.88-3.32-2.91-3.33-18.63-.2-37.26-.15-56.12-.15-.27,1.33-.62,2.26-.63,3.19-.04,10.66-.17,21.33.03,31.99.18,9.62,2.85,12.41,12.3,13.39,2.57.27,4.77.6,4.57,3.84-.19,3.07-2.27,3.63-4.91,3.62-14.16-.04-28.32.09-42.47-.15-1.54-.03-3.91-1.76-4.38-3.2-.95-2.91,1.2-3.77,3.96-4.12,10.13-1.29,12.22-2.95,12.33-13.2.3-26.65.14-53.3-.17-79.95-.1-8.12-3.26-10.84-11.4-11.46-2.62-.2-5.16-.05-4.95-3.83.22-3.8,2.72-3.86,5.63-3.84,13.32.1,26.63.07,39.95.08.67,0,1.53-.33,1.96-.02,1.56,1.11,2.98,2.43,4.45,3.67-1.33,1.28-2.54,3.48-4.02,3.69-10.23,1.44-12.7,3.78-12.86,14.01-.17,11.29-.04,22.58-.04,34.66Z"/>
  <path class="cls-2" d="M179.13,289.94c9.6-1.75,18.38.31,27.17,1.75,4.42.73,8.76,1.91,13.16,2.77,7.68,1.51,8.98.72,12.81-5.97,1.44-2.51,3.31-5.14,5.66-6.7,6.62-4.4,13.23-1.85,14.75,5.9,2.72,13.85,4.93,27.8,7.24,41.73,1.79,10.81,3.46,21.65,5.07,32.49.29,1.95.14,3.98.07,5.97-.15,4.1-1.57,7.45-5.7,9.08-4.24,1.67-8.24.67-10.89-2.58-3.53-4.33-6.74-9.07-9.24-14.06-6.46-12.88-13.85-25-24.58-34.83-7.73-7.08-16.65-11.65-27.15-12.32-3.97-.25-4.98-1.93-5.42-5.38-.72-5.74-1.86-11.43-2.94-17.86Z"/>
  <path class="cls-2" d="M299.59,457.18c-2.93-.33-7.07-.69-11.17-1.3-3.57-.53-6.38-3.08-5.83-6.3.43-2.49,3.29-6.08,5.54-6.47,6.96-1.2,14.17-1.78,21.22-1.39,21.43,1.18,42.84,2.86,64.24,4.5,4.61.35,7.81-1.07,10.53-4.93,4.52-6.42,10.97-9.35,18.91-9.22,10.73.17,21.29,1.21,31.09,5.98,4.98,2.42,10.57,5.3,10.5,11.54-.08,6.39-5.71,9.42-10.89,11.84-11.32,5.27-23.41,6.25-35.65,5.33-6.23-.47-10.93-4.11-14-9.35-2.27-3.88-5.23-5.06-9.48-4.79-20.93,1.33-41.87,2.53-62.81,3.78-3.66.22-7.31.47-12.2.79Z"/>
  <path class="cls-2" d="M220.9,540.14c-1.3-7.52-2.66-14.35-3.47-21.23-.13-1.12,1.96-3.14,3.43-3.71,11.22-4.34,21.19-10.41,28.95-19.77,5.93-7.15,8.33-15.77,10.34-24.59.77-3.38,1.75-6.75,2.96-10,1.5-4,4.1-6.94,8.87-6.58,5.06.38,8.9,3.25,9.62,8.02.83,5.46,1.31,11.48-.1,16.7-8.48,31.41-28.33,51.97-60.61,61.17Z"/>
  <path class="cls-2" d="M442.33,399.55h-33.96c-.03.75-.07,1.5-.1,2.25,11,2.39,22.44.82,33.54,3.33-5.61,0-11.23-.15-16.84.04-5.72.19-11.42.7-17.12,1.96,10.57,3.81,21.62,2.47,32.41,3.34,0,.6,0,1.2,0,1.79h-31.81c-.03.92-.06,1.84-.09,2.76,11.02.59,22.04,1.19,33.06,1.78l-.03,1.66c-14.89.47-29.79,1.31-44.68,1.16-3.72-.04-7.36-3.37-11.14-4.96-3.4-1.43-6.99-3.76-10.4-3.61-19.78.86-39.51,2.59-59.29,3.5-9.08.42-18.22-.31-27.32-.64-3.77-.13-6.42-2.81-5.98-6,.35-2.46,3.07-5.84,5.39-6.49,5.21-1.46,10.87-2.24,16.27-1.95,20.76,1.12,41.51,2.62,62.24,4.3,8.14.66,15.88,1.25,22.4-5.2,1.76-1.74,4.74-3.17,7.15-3.15,15.41.13,30.81.7,46.22,1.13.02.99.04,1.99.07,2.98Z"/>
  <path class="cls-2" d="M393.64,382.35c-11.02,1.59-21.09-1.09-30.84-6.13-2.37-1.22-5.47-1.68-8.17-1.51-16.42,1.07-32.81,2.56-49.23,3.61-5.09.33-10.25-.06-15.35-.5-3.55-.3-5.68-2.56-5.93-6.25-.24-3.69,1.63-6.64,4.99-7.07,6.19-.78,12.53-1.14,18.74-.73,17.24,1.15,34.67,5.14,51.61,3.56,17.28-1.62,34.45-1.9,51.69-2.1,8.11-.1,16.24,1.11,24.36,1.74.66.05,1.45-.03,1.96.29,1.98,1.25,3.87,2.63,5.79,3.97-1.63,1.52-3.02,3.89-4.92,4.41-7.35,2.01-14.79,3.85-22.32,4.95-7.38,1.08-14.91,1.2-22.37,1.74Z"/>
  <path class="cls-1" d="M591.62,308.27c.9-4.61,1.27-8.29,2.44-11.69.52-1.53,2.46-2.93,4.09-3.66,10.24-4.59,18.06-11.59,22.36-22.45-.66.47-1.34.92-1.97,1.42-.78.62-1.52,1.3-2.29,1.93-15.55,12.48-32.59,15.88-51.37,8.31-4.01-1.62-8.01-3.28-11.89-5.2-11.2-5.55-22.4-11.02-36.4-11.65,13.53-15.79,29.76-25.57,47.79-32.81-21.17,1.56-39.27,9.99-54.66,24.38-6.32,5.91-12.28,12.22-18.58,18.16-19.43,18.28-43.9,16.19-60.19-5.05-.29-.38-.69-.67-1.04-1l-1.28.48c1.58,3.89,2.73,8.05,4.86,11.61,2.01,3.36,4.57,6.87,7.77,8.95,5.21,3.38,6.43,8.02,6.61,14.03-9.3,3.08-18.57,2.34-27.41-1.56-15.51-6.84-24.43-19.06-25.43-35.92-1.06-17.93,6.93-31.83,22.81-40.12,10.38-5.41,21.63-9.17,33.69-14.17-3.64,8.55-9.31,13.28-17.25,17.68,9.36-.43,15.25-4.66,20.5-10,7.95-8.11,11.48-18.56,15.09-28.96,1.25-3.61,2.68-7.17,3.94-10.78,8.79-25.36,33.66-32.79,54.27-29.86,22.29,3.16,40.47,14.72,57.03,29.07,20.2,17.51,37.77,37.2,47.54,62.61,6.71,17.46,6.02,34.33-6.42,49.35-8.71,10.51-20.14,15.79-34.6,16.91Z"/>
  <path class="cls-1" d="M583.27,297.93c-2.52,13.13-5.15,26.76-7.89,41.03-36.73-8.16-73.16-8.23-110.12-.01-2.58-13.33-5.09-26.31-7.73-39.94,1.79,0,3.05-.11,4.28.02,12.65,1.3,23.47-2.92,33.44-10.44,2.57-1.94,6.1-3.01,9.35-3.53,4.07-.65,8.31-.26,12.46-.44,14.24-.62,27.91.54,41.19,7.08,7.23,3.56,15.96,4.1,25.01,6.24Z"/>
  <circle class="cls-3" cx="370.21" cy="370.21" r="368.71"/>
</svg>